<svg xmlns="http://www.w3.org/2000/svg" width="113" height="34" fill="#732225" viewBox="0 0 113 34">
    <path d="M44.053 34c-2.88 0-5.076-.708-6.588-2.125-1.512-1.448-2.268-3.51-2.268-6.186V8.31c0-2.676.756-4.722 2.268-6.139C38.977.724 41.173 0 44.053 0s5.076.724 6.588 2.172c1.512 1.417 2.268 3.463 2.268 6.14v2.832h-5.616V7.981c0-2.173-1.026-3.259-3.078-3.259-2.052 0-3.078 1.086-3.078 3.259v18.086c0 2.14 1.026 3.21 3.078 3.21 2.052 0 3.078-1.07 3.078-3.21v-6.47h-2.97v-4.722h8.586v10.814c0 2.676-.756 4.738-2.268 6.186C49.129 33.292 46.933 34 44.053 34zM60.394.472h8.046l6.156 33.056h-5.94l-1.08-6.564v.094h-6.75l-1.08 6.47h-5.508L60.394.472zm6.48 22.1L64.228 6.233h-.108l-2.592 16.34h5.346zM84.825 34c-2.844 0-5.022-.708-6.534-2.125-1.476-1.417-2.214-3.416-2.214-5.997V8.122c0-2.581.738-4.58 2.214-5.997C79.803.708 81.98 0 84.825 0s5.004.708 6.48 2.125c1.512 1.417 2.268 3.416 2.268 5.997v3.495h-5.616V7.792c0-2.047-.99-3.07-2.97-3.07-1.98 0-2.97 1.023-2.97 3.07v18.464c0 2.014.99 3.022 2.97 3.022 1.98 0 2.97-1.008 2.97-3.022v-5.053h5.616v4.675c0 2.581-.756 4.58-2.268 5.997C89.829 33.292 87.669 34 84.825 34zM104.036 34c-2.88 0-5.058-.708-6.534-2.125-1.476-1.448-2.214-3.51-2.214-6.186V23.8h5.616v2.267c0 2.14 1.026 3.21 3.078 3.21 1.008 0 1.764-.251 2.268-.755.54-.535.81-1.385.81-2.55 0-1.385-.36-2.597-1.08-3.636-.72-1.07-2.052-2.345-3.996-3.825-2.448-1.889-4.158-3.589-5.13-5.1-.972-1.543-1.458-3.274-1.458-5.194 0-2.613.756-4.628 2.268-6.045C99.176.724 101.372 0 104.252 0c2.844 0 4.986.724 6.426 2.172 1.476 1.417 2.214 3.463 2.214 6.14V9.68h-5.616v-1.7c0-1.134-.252-1.952-.756-2.456-.504-.535-1.242-.803-2.214-.803-1.98 0-2.97 1.055-2.97 3.164 0 1.196.36 2.314 1.08 3.353.756 1.039 2.106 2.298 4.05 3.778 2.484 1.889 4.194 3.604 5.13 5.147.936 1.542 1.404 3.353 1.404 5.43 0 2.708-.774 4.786-2.322 6.234-1.512 1.448-3.726 2.172-6.642 2.172zM8.04 15.065c0-1.085.772-1.965 1.723-1.965h2.872V9.825c0-1.085.77-1.965 1.722-1.965s1.723.88 1.723 1.965V13.1h2.872c.951 0 1.722.88 1.722 1.965s-.771 1.965-1.723 1.965h-2.87v3.274c0 1.086-.772 1.965-1.724 1.965-.951 0-1.722-.88-1.722-1.965V17.03H9.763c-.951 0-1.722-.88-1.722-1.965z"/>
    <path fill-rule="evenodd" d="M.841.96C1.379.344 2.11 0 2.871 0h22.97c.762 0 1.493.345 2.031.96.539.613.841 1.446.841 2.315v9.606c0 15.142-11.3 20.133-13.454 20.95-.585.226-1.22.226-1.805 0C11.3 33.013 0 28.022 0 12.88V3.275C0 2.406.303 1.573.841.959zm2.605 2.97v8.95c0 11.993 8.62 16.236 10.91 17.15 2.291-.914 10.911-5.157 10.911-17.15V3.93H3.446z" clip-rule="evenodd"/>
</svg>
